<svg version="1.1" id="Layer_1" xmlns="http://www.w3.org/2000/svg" xmlns:xlink="http://www.w3.org/1999/xlink" x="0px" y="0px"
	 width="100%" viewBox="0 0 959 608" enable-background="new 0 0 959 608" xml:space="preserve">
<path fill="#09090B" opacity="1.000000" stroke="none" 
	d="
M675.000000,609.000000 
	C450.000000,609.000000 225.500000,609.000000 1.000000,609.000000 
	C1.000000,406.333344 1.000000,203.666672 1.000000,1.000000 
	C320.666656,1.000000 640.333313,1.000000 960.000000,1.000000 
	C960.000000,203.666672 960.000000,406.333344 960.000000,609.000000 
	C865.166687,609.000000 770.333313,609.000000 675.000000,609.000000 
M615.493286,214.703232 
	C599.388367,214.703232 583.283447,214.703232 566.907654,214.703232 
	C566.907654,212.270706 566.907654,210.452423 566.907654,208.634155 
	C566.907654,187.476364 566.915466,166.318588 566.902527,145.160797 
	C566.898987,139.403091 564.824829,135.773499 559.365173,134.250992 
	C550.675110,131.827606 542.030945,131.758301 534.581665,137.516479 
	C524.966858,130.238419 515.127136,132.471649 505.216125,136.090775 
	C504.207672,132.628769 492.866455,131.470627 479.584503,133.511368 
	C479.584503,158.885269 479.584503,184.281342 479.584503,209.731064 
	C488.103943,209.731064 496.345764,209.731064 505.002441,209.731064 
	C505.002441,190.551041 505.002441,171.641052 505.002441,152.643250 
	C506.967194,152.643250 508.506165,152.643250 510.476624,152.643250 
	C510.476624,171.905380 510.476624,190.830353 510.476624,209.699280 
	C519.161072,209.699280 527.406128,209.699280 536.055420,209.699280 
	C536.055420,190.481491 536.055420,171.566437 536.055420,152.526367 
	C538.051147,152.526367 539.633118,152.526367 541.721436,152.526367 
	C541.721436,154.536087 541.721436,156.325485 541.721436,158.114868 
	C541.721436,178.939453 541.720154,199.764053 541.722107,220.588638 
	C541.723022,230.035477 545.748657,233.995422 555.428345,234.001236 
	C578.418701,234.015076 601.409058,234.010513 624.399414,233.994202 
	C625.832520,233.993179 627.265503,233.826752 628.647583,233.740463 
	C628.647583,227.268539 628.647583,221.175797 628.647583,214.703232 
	C624.424988,214.703232 620.457947,214.703232 615.493286,214.703232 
M194.090988,158.382187 
	C193.443085,162.085541 192.795181,165.788895 192.147263,169.492233 
	C191.851990,169.432175 191.556732,169.372116 191.261459,169.312073 
	C189.489761,157.319916 187.718048,145.327759 185.927032,133.204803 
	C177.053040,133.204803 168.451920,133.204803 159.472748,133.204803 
	C163.628845,158.874741 167.742004,184.279587 171.867325,209.759491 
	C182.742233,209.759491 193.318604,209.759491 204.008392,209.759491 
	C205.818604,199.133636 207.591873,188.724716 209.365128,178.315781 
	C209.795532,178.360779 210.225937,178.405777 210.656342,178.450775 
	C212.365799,188.889954 214.075256,199.329132 215.771790,209.689392 
	C226.540237,209.689392 236.946655,209.689392 247.476608,209.689392 
	C251.619934,184.119919 255.716614,158.838318 259.855835,133.294189 
	C251.481323,133.294189 243.273026,133.294189 234.992279,133.294189 
	C233.210617,145.032089 231.471436,156.490219 229.732254,167.948334 
	C229.257446,167.914734 228.782639,167.881134 228.307831,167.847549 
	C226.636200,156.272400 224.964584,144.697266 223.304810,133.204224 
	C214.549622,133.204224 206.270370,133.204224 197.681366,133.204224 
	C196.493454,141.410797 195.328445,149.459152 194.090988,158.382187 
M614.483093,330.009277 
	C618.224792,330.009277 621.966492,330.009277 626.105774,330.009277 
	C626.105774,310.300049 626.105774,291.381531 626.105774,272.583282 
	C627.946655,272.583282 629.368164,272.583282 631.219604,272.583282 
	C631.219604,291.772156 631.219604,310.693268 631.219604,329.779175 
	C639.904053,329.779175 648.149231,329.779175 656.984802,329.779175 
	C656.984802,310.516632 656.984802,291.476654 656.984802,272.552063 
	C659.020752,272.552063 660.463562,272.552063 662.392334,272.552063 
	C662.392334,291.705750 662.392334,310.625793 662.392334,329.707916 
	C671.098511,329.707916 679.310974,329.707916 687.833801,329.707916 
	C687.833801,308.108246 687.841492,286.808380 687.828979,265.508545 
	C687.825317,259.232269 685.672729,255.709778 679.585388,254.084793 
	C671.066406,251.810684 662.606628,251.890686 655.423157,257.481049 
	C645.765137,250.301132 636.071106,252.499191 626.286072,255.981125 
	C625.123657,252.779160 609.200928,251.378113 600.397583,253.748322 
	C600.397583,279.037994 600.397583,304.307220 600.397583,330.009277 
	C604.910217,330.009277 609.202759,330.009277 614.483093,330.009277 
M333.292694,406.457428 
	C333.369171,398.800171 333.619354,391.139587 333.471924,383.486664 
	C333.332550,376.251892 329.848999,373.066467 322.438538,373.011993 
	C313.109802,372.943390 303.780182,372.995026 294.450958,372.994843 
	C288.674530,372.994720 282.898132,372.994812 277.183594,372.994812 
	C277.183594,398.960999 277.183594,424.341980 277.183594,449.705811 
	C285.731903,449.705811 293.964233,449.705811 302.671814,449.705811 
	C302.671814,439.490692 302.671814,429.564636 302.671814,419.565765 
	C304.572327,419.565765 305.989807,419.565765 307.870880,419.565765 
	C307.870880,421.445282 307.870880,423.080750 307.870880,424.716217 
	C307.870880,437.044128 307.867004,449.372040 307.872131,461.699951 
	C307.876099,471.285309 310.630188,473.988770 320.441620,474.001892 
	C331.270203,474.016418 342.098755,474.005188 352.927338,474.005188 
	C368.242798,474.005188 383.558289,474.005188 398.993164,474.005188 
	C398.993164,467.481354 398.993164,461.241394 398.993164,454.567017 
	C377.141449,454.567017 355.573608,454.567017 333.527710,454.567017 
	C333.527710,442.677551 333.445557,431.218719 333.575592,419.762299 
	C333.616943,416.118164 332.878296,413.164276 329.815765,411.825195 
	C330.923309,410.309479 332.039398,408.782104 333.292694,406.457428 
M745.619324,352.432739 
	C749.304932,350.288177 749.858521,346.816956 749.852722,342.956940 
	C749.809875,314.294647 749.833191,285.632294 749.816406,256.969940 
	C749.815613,255.702072 749.626465,254.434311 749.534241,253.281586 
	C740.900696,253.281586 732.642456,253.281586 723.988647,253.281586 
	C723.988647,272.313843 723.988647,291.062500 723.988647,310.133392 
	C722.025574,310.029449 720.485535,309.947906 718.549072,309.845367 
	C718.549072,290.638947 718.549072,271.895630 718.549072,253.300934 
	C709.862305,253.300934 701.604126,253.300934 693.091919,253.300934 
	C693.091919,274.911407 693.415771,296.223114 692.947266,317.517334 
	C692.731934,327.302673 697.927612,329.793091 705.283447,329.918640 
	C711.422058,330.023438 717.563904,329.940186 724.049805,329.940186 
	C723.958679,331.698608 723.888184,333.058411 723.790222,334.948120 
	C713.388428,334.948120 703.336548,334.948120 693.386719,334.948120 
	C693.386719,341.584198 693.386719,347.663727 693.386719,353.969849 
	C709.322510,353.969849 724.965027,353.999847 740.606934,353.919800 
	C742.045044,353.912445 743.479614,353.203247 745.619324,352.432739 
M280.533112,210.006699 
	C290.018433,210.004257 299.504578,210.074722 308.988800,209.972076 
	C314.684692,209.910431 318.523010,207.418732 318.919067,202.864014 
	C319.399261,197.342041 319.033051,191.746475 319.033051,186.249786 
	C310.346130,186.249786 302.088959,186.249786 293.577209,186.249786 
	C293.967896,190.367416 292.260681,191.548630 288.492493,190.153992 
	C288.492493,187.438766 288.492493,184.849503 288.492493,181.729584 
	C298.717987,181.729584 308.781464,181.729584 319.282257,181.729584 
	C319.282257,168.922684 319.304565,156.640472 319.274384,144.358383 
	C319.254364,136.209976 316.006531,133.026398 307.686554,133.001724 
	C296.537201,132.968674 285.387665,132.970581 274.238312,133.001007 
	C265.755249,133.024155 262.486694,136.284088 262.474976,144.732483 
	C262.452576,160.874176 262.468475,177.015930 262.468475,193.157654 
	C262.468475,208.819946 263.671295,210.006546 280.533112,210.006699 
M637.280762,392.534607 
	C637.280334,389.703796 637.302368,386.872803 637.275146,384.042236 
	C637.201904,376.426117 633.940613,373.056732 626.366455,373.013123 
	C614.710571,372.945953 603.053711,372.942627 591.397827,373.014618 
	C583.890808,373.060974 580.504211,376.507477 580.485840,384.086151 
	C580.441406,402.403076 580.439941,420.720276 580.486389,439.037170 
	C580.505798,446.688324 583.770935,449.946960 591.445435,449.988251 
	C603.101440,450.050964 614.758179,450.051392 626.414185,449.987946 
	C634.091248,449.946136 637.252869,446.717133 637.270630,438.983307 
	C637.305420,423.830231 637.280762,408.676971 637.280762,392.534607 
M432.592224,132.993576 
	C431.759583,132.993591 430.926971,132.991943 430.094330,132.993881 
	C420.251129,133.016678 417.310699,135.940964 417.309326,145.722931 
	C417.306793,163.541351 417.281372,181.359833 417.321777,199.178162 
	C417.338531,206.554626 420.612183,209.928925 427.925720,209.982224 
	C439.748505,210.068390 451.572754,210.059250 463.395721,209.984177 
	C470.842865,209.936905 474.088715,206.721878 474.111694,199.340378 
	C474.169281,180.856033 474.165039,162.371277 474.113159,143.886887 
	C474.092010,136.356400 470.708069,133.056320 463.043701,133.008820 
	C453.218964,132.947937 443.393555,132.993729 432.592224,132.993576 
M521.604553,330.006409 
	C532.263428,330.003937 542.923340,330.093781 553.580688,329.964874 
	C560.127075,329.885681 563.622131,326.513977 563.654541,320.147430 
	C563.752136,300.995300 563.755371,281.841919 563.645447,262.689911 
	C563.612061,256.871002 560.151733,253.184372 554.351562,253.088150 
	C541.531433,252.875488 528.702393,252.866837 515.883118,253.106918 
	C510.473511,253.208221 506.974640,256.733276 506.939148,261.951874 
	C506.804260,281.769073 506.871979,301.587952 506.936981,321.405945 
	C506.951599,325.864838 509.611328,328.523315 513.712219,329.529816 
	C515.928345,330.073761 518.327515,329.871857 521.604553,330.006409 
M504.848358,449.929962 
	C511.755676,447.731171 513.107117,446.003601 513.119873,438.879028 
	C513.152588,420.554169 513.164734,402.229095 513.113525,383.904327 
	C513.092468,376.361389 509.715179,373.049896 502.054352,373.009735 
	C490.559967,372.949493 479.064789,372.954926 467.570312,373.007507 
	C459.725739,373.043396 456.328857,376.455231 456.317230,384.256470 
	C456.290192,402.414764 456.291656,420.573181 456.316406,438.731476 
	C456.327271,446.710510 459.527069,449.961670 467.485046,449.991638 
	C479.645844,450.037445 491.806976,449.987671 504.848358,449.929962 
M271.691406,396.503418 
	C271.691040,392.340424 271.722839,388.177124 271.683228,384.014496 
	C271.611847,376.517090 268.211975,373.054779 260.682648,373.011780 
	C249.026672,372.945251 237.369705,372.939392 225.713837,373.014832 
	C218.189072,373.063599 214.896866,376.462555 214.881165,384.113220 
	C214.843582,402.430267 214.842255,420.747498 214.881760,439.064545 
	C214.898376,446.766724 218.075150,449.950531 225.798447,449.990326 
	C237.454498,450.050385 249.111359,450.055115 260.767334,449.988220 
	C268.408844,449.944336 271.658783,446.635162 271.680389,438.965515 
	C271.719299,425.144531 271.691406,411.323364 271.691406,396.503418 
M628.907471,160.499969 
	C628.907471,154.669754 628.950134,148.839127 628.895752,143.009415 
	C628.837463,136.762634 625.754639,133.195511 619.550049,133.088959 
	C606.894226,132.871613 594.228943,132.864380 581.573730,133.102676 
	C575.688965,133.213501 572.367798,136.866608 572.342407,142.714508 
	C572.259277,161.870560 572.268372,181.027359 572.335999,200.183533 
	C572.356995,206.118515 575.547485,209.773453 581.427979,209.887024 
	C594.249268,210.134644 607.080872,210.103348 619.903625,209.897476 
	C625.047546,209.814880 628.590088,206.599655 628.805786,202.173416 
	C629.062378,196.908600 628.866211,191.621735 628.866211,186.258789 
	C620.171387,186.258789 611.938049,186.258789 603.753906,186.258789 
	C603.347534,187.902451 603.005127,189.287338 602.639343,190.766754 
	C600.975830,190.665131 599.568970,190.579193 598.175781,190.494095 
	C598.175781,187.110870 598.175781,184.199509 598.175781,180.852539 
	C608.506348,180.852539 618.576721,180.852539 628.907471,180.852539 
	C628.907471,174.106506 628.907471,167.803055 628.907471,160.499969 
M453.558289,252.993240 
	C450.787964,252.993240 448.017639,252.993240 445.306946,252.993240 
	C445.106384,255.031860 444.968262,256.435516 444.828827,257.852631 
	C442.704224,257.980347 440.934448,258.086731 439.155426,258.193695 
	C439.155426,264.593231 439.155426,270.651672 439.155426,277.063751 
	C441.195709,277.063751 442.954895,277.063751 445.091278,277.063751 
	C445.091278,291.527344 445.069183,305.636261 445.101044,319.745056 
	C445.115906,326.322845 448.191711,329.830719 454.648407,329.929413 
	C467.129944,330.120148 479.618500,330.123016 492.100037,329.933502 
	C498.512604,329.836151 501.649384,326.259949 501.679016,319.690216 
	C501.726379,309.203400 501.691864,298.716187 501.691956,288.229156 
	C501.691956,286.152649 501.691925,284.076172 501.691925,282.077911 
	C492.769623,282.077911 484.559967,282.077911 476.028564,282.077911 
	C476.028564,291.735931 476.028564,301.019775 476.028564,310.385620 
	C474.157288,310.385620 472.623657,310.385620 470.916931,310.385620 
	C470.916931,299.180542 470.916931,288.283112 470.916931,276.920105 
	C481.197479,276.920105 491.261505,276.920105 501.392365,276.920105 
	C501.392365,270.383575 501.392365,264.317719 501.392365,257.846985 
	C491.022461,257.846985 480.945068,257.846985 470.961548,257.846985 
	C470.703064,256.001373 470.502838,254.571671 470.281769,252.993240 
	C464.852905,252.993240 459.697998,252.993240 453.558289,252.993240 
M394.640778,165.723999 
	C400.398071,165.723999 406.155365,165.723999 412.284485,165.723999 
	C412.284485,157.793121 412.337799,150.490677 412.268555,143.189377 
	C412.206635,136.658005 409.048248,133.159149 402.572540,133.064713 
	C390.084900,132.882629 377.590668,132.875443 365.103363,133.067764 
	C358.918518,133.163025 355.531799,136.709732 355.502502,142.839066 
	C355.410980,161.990540 355.412140,181.143021 355.503723,200.294495 
	C355.532074,206.223312 358.784576,209.794189 364.699036,209.900833 
	C377.517944,210.131943 390.345886,210.099274 403.166077,209.905869 
	C408.312561,209.828232 412.003082,206.709396 412.120605,202.257828 
	C412.383484,192.302490 412.202850,182.335434 412.202850,172.385620 
	C403.547211,172.385620 395.303680,172.385620 386.517273,172.385620 
	C386.517273,178.566345 386.517273,184.471848 386.517273,190.507309 
	C384.523254,190.507309 383.078522,190.507309 381.410583,190.507309 
	C381.410583,177.748245 381.410583,165.170624 381.410583,152.258667 
	C383.283386,152.383286 384.855835,152.487930 386.833038,152.619492 
	C386.833038,157.166473 386.833038,161.270325 386.833038,165.723984 
	C389.408417,165.723984 391.548096,165.723984 394.640778,165.723999 
M357.482788,372.997437 
	C352.672058,372.997437 347.861298,372.997437 342.977448,372.997437 
	C342.782471,374.788116 342.625824,376.226959 342.454376,377.801392 
	C340.464508,377.940399 338.674500,378.065460 336.687683,378.204254 
	C336.687683,384.442902 336.687683,390.551758 336.687683,396.793823 
	C338.678864,396.933685 340.470367,397.059509 342.726807,397.217987 
	C342.726807,398.960571 342.726776,400.592316 342.726807,402.224060 
	C342.727020,414.884674 342.674591,427.545563 342.750580,440.205719 
	C342.786499,446.191864 345.884735,449.775787 351.793732,449.887238 
	C364.615967,450.129150 377.448029,450.096619 390.271667,449.896576 
	C395.415283,449.816376 399.068146,446.654388 399.142120,442.150085 
	C399.359802,428.891174 399.219757,415.626434 399.219757,402.314697 
	C390.537689,402.314697 382.305359,402.314697 373.682129,402.314697 
	C373.682129,411.892670 373.682129,421.158722 373.682129,430.755585 
	C371.703033,430.630859 370.142395,430.532471 368.567261,430.433197 
	C368.567261,419.115845 368.567261,408.205750 368.567261,396.845886 
	C378.944244,396.845886 389.035492,396.845886 399.126373,396.845886 
	C399.126373,390.431854 399.126373,384.473053 399.126373,378.043030 
	C388.911713,378.043030 378.832825,378.043030 368.513031,378.043030 
	C368.347656,376.178223 368.221649,374.756958 368.065613,372.997437 
	C364.761292,372.997437 361.616760,372.997437 357.482788,372.997437 
M383.500183,214.711182 
	C372.556793,214.711182 361.613373,214.711182 350.266357,214.711182 
	C350.266357,187.246902 350.266357,160.336395 350.266357,133.231750 
	C341.601196,133.231750 333.349579,133.231750 324.977814,133.231750 
	C324.977814,166.852081 324.977814,200.239517 324.977814,233.742355 
	C354.142487,233.742355 383.058807,233.742355 412.053406,233.742355 
	C412.053406,227.392990 412.053406,221.303345 412.053406,214.711166 
	C402.728973,214.711166 393.614594,214.711166 383.500183,214.711182 
M165.523666,372.993835 
	C161.783127,372.993835 158.042587,372.993835 154.391693,372.993835 
	C154.391693,399.036438 154.391693,424.294098 154.391693,449.619751 
	C162.971649,449.619751 171.324966,449.619751 180.122406,449.619751 
	C180.122406,440.008179 180.122406,430.778046 180.122406,421.181610 
	C187.378387,421.181610 194.196854,421.437958 200.987137,421.110229 
	C207.906479,420.776245 210.783127,417.458649 210.818634,410.581726 
	C210.863342,401.921783 210.838242,393.261383 210.827042,384.601196 
	C210.816040,376.099701 207.704803,373.027496 198.991272,373.001648 
	C188.166107,372.969482 177.340790,372.993866 165.523666,372.993835 
M543.910156,411.500031 
	C543.910156,398.738861 543.910156,385.977722 543.910156,373.330505 
	C535.048218,373.330505 526.814087,373.330505 518.673279,373.330505 
	C518.673279,407.052856 518.673279,440.435638 518.673279,473.725708 
	C537.643311,473.725708 556.245178,473.725708 574.930237,473.725708 
	C574.930237,467.332794 574.930237,461.223175 574.930237,454.760406 
	C564.610168,454.760406 554.484924,454.760406 543.910156,454.760406 
	C543.910156,440.439789 543.910156,426.469940 543.910156,411.500031 
M449.333801,372.998871 
	C438.014923,373.000732 426.695374,372.929260 415.377411,373.030792 
	C408.077789,373.096252 404.775299,376.510468 404.739777,383.792877 
	C404.693512,393.280487 404.728363,402.768555 404.728363,412.256409 
	C404.728333,424.692688 404.728363,437.128937 404.728363,449.606323 
	C413.481689,449.606323 421.826508,449.606323 430.466705,449.606323 
	C430.466705,438.274841 430.466705,427.337036 430.466705,415.979675 
	C437.673920,415.979675 444.586945,415.979675 451.661621,415.979675 
	C451.661621,409.492767 451.661621,403.435486 451.661621,396.974426 
	C444.504822,396.974426 437.577515,396.974426 430.260223,396.974426 
	C430.408569,395.189240 430.520599,393.841339 430.666138,392.090027 
	C437.987579,392.090027 444.896698,392.090027 452.118286,392.090027 
	C452.118286,386.190643 452.189148,380.725189 452.037628,375.265869 
	C452.016266,374.497101 450.908417,373.758423 449.333801,372.998871 
M575.138489,419.500031 
	C575.138489,404.086334 575.138489,388.672638 575.138489,373.288055 
	C566.264771,373.288055 558.030090,373.288055 549.778503,373.288055 
	C549.778503,398.987823 549.778503,424.386993 549.778503,449.714233 
	C558.364319,449.714233 566.627930,449.714233 575.138489,449.714233 
	C575.138489,439.779388 575.138489,430.139740 575.138489,419.500031 
M572.851807,310.689789 
	C571.006165,310.817505 568.710266,309.976074 568.815735,313.374084 
	C568.984192,318.804199 568.860840,324.243347 568.860840,330.013000 
	C573.173340,330.013000 576.948425,330.013000 580.787964,330.013000 
	C580.787964,331.863007 580.787964,333.353699 580.787964,335.195496 
	C576.648438,335.195496 572.876526,335.195496 569.263123,335.195496 
	C569.263123,338.609009 569.263123,341.652161 569.263123,344.900665 
	C574.317017,344.900665 578.974487,345.056335 583.617493,344.863495 
	C590.267212,344.587341 594.242493,341.541931 594.434143,336.104126 
	C594.726074,327.819214 594.510681,319.516388 594.510681,310.689758 
	C587.359131,310.689758 580.571777,310.689758 572.851807,310.689789 
z"/>
<path fill="#FCFCFC" opacity="1.000000" stroke="none" 
	d="
M615.992065,214.703232 
	C620.457947,214.703232 624.424988,214.703232 628.647583,214.703232 
	C628.647583,221.175797 628.647583,227.268539 628.647583,233.740463 
	C627.265503,233.826752 625.832520,233.993179 624.399414,233.994202 
	C601.409058,234.010513 578.418701,234.015076 555.428345,234.001236 
	C545.748657,233.995422 541.723022,230.035477 541.722107,220.588638 
	C541.720154,199.764053 541.721436,178.939453 541.721436,158.114868 
	C541.721436,156.325485 541.721436,154.536087 541.721436,152.526367 
	C539.633118,152.526367 538.051147,152.526367 536.055420,152.526367 
	C536.055420,171.566437 536.055420,190.481491 536.055420,209.699280 
	C527.406128,209.699280 519.161072,209.699280 510.476624,209.699280 
	C510.476624,190.830353 510.476624,171.905380 510.476624,152.643250 
	C508.506165,152.643250 506.967194,152.643250 505.002441,152.643250 
	C505.002441,171.641052 505.002441,190.551041 505.002441,209.731064 
	C496.345764,209.731064 488.103943,209.731064 479.584503,209.731064 
	C479.584503,184.281342 479.584503,158.885269 479.584503,133.511368 
	C492.866455,131.470627 504.207672,132.628769 505.215942,136.094391 
	C515.127136,132.471649 524.966858,130.238419 534.581665,137.516479 
	C542.030945,131.758301 550.675110,131.827606 559.365173,134.250992 
	C564.824829,135.773499 566.898987,139.403091 566.902527,145.160797 
	C566.915466,166.318588 566.907654,187.476364 566.907654,208.634155 
	C566.907654,210.452423 566.907654,212.270706 566.907654,214.703232 
	C583.283447,214.703232 599.388367,214.703232 615.992065,214.703232 
z"/>
<path fill="#FCFCFC" opacity="1.000000" stroke="none" 
	d="
M194.127213,157.944839 
	C195.328445,149.459152 196.493454,141.410797 197.681366,133.204224 
	C206.270370,133.204224 214.549622,133.204224 223.304810,133.204224 
	C224.964584,144.697266 226.636200,156.272400 228.307831,167.847549 
	C228.782639,167.881134 229.257446,167.914734 229.732254,167.948334 
	C231.471436,156.490219 233.210617,145.032089 234.992279,133.294189 
	C243.273026,133.294189 251.481323,133.294189 259.855835,133.294189 
	C255.716614,158.838318 251.619934,184.119919 247.476608,209.689392 
	C236.946655,209.689392 226.540237,209.689392 215.771790,209.689392 
	C214.075256,199.329132 212.365799,188.889954 210.656342,178.450775 
	C210.225937,178.405777 209.795532,178.360779 209.365128,178.315781 
	C207.591873,188.724716 205.818604,199.133636 204.008392,209.759491 
	C193.318604,209.759491 182.742233,209.759491 171.867325,209.759491 
	C167.742004,184.279587 163.628845,158.874741 159.472748,133.204803 
	C168.451920,133.204803 177.053040,133.204803 185.927032,133.204803 
	C187.718048,145.327759 189.489761,157.319916 191.261459,169.312073 
	C191.556732,169.372116 191.851990,169.432175 192.147263,169.492233 
	C192.795181,165.788895 193.443085,162.085541 194.127213,157.944839 
z"/>
<path fill="#FAFAFA" opacity="1.000000" stroke="none" 
	d="
M613.989258,330.009277 
	C609.202759,330.009277 604.910217,330.009277 600.397583,330.009277 
	C600.397583,304.307220 600.397583,279.037994 600.397583,253.748322 
	C609.200928,251.378113 625.123657,252.779160 626.286072,255.981125 
	C636.071106,252.499191 645.765137,250.301132 655.423157,257.481049 
	C662.606628,251.890686 671.066406,251.810684 679.585388,254.084793 
	C685.672729,255.709778 687.825317,259.232269 687.828979,265.508545 
	C687.841492,286.808380 687.833801,308.108246 687.833801,329.707916 
	C679.310974,329.707916 671.098511,329.707916 662.392334,329.707916 
	C662.392334,310.625793 662.392334,291.705750 662.392334,272.552063 
	C660.463562,272.552063 659.020752,272.552063 656.984802,272.552063 
	C656.984802,291.476654 656.984802,310.516632 656.984802,329.779175 
	C648.149231,329.779175 639.904053,329.779175 631.219604,329.779175 
	C631.219604,310.693268 631.219604,291.772156 631.219604,272.583282 
	C629.368164,272.583282 627.946655,272.583282 626.105774,272.583282 
	C626.105774,291.381531 626.105774,310.300049 626.105774,330.009277 
	C621.966492,330.009277 618.224792,330.009277 613.989258,330.009277 
z"/>
<path fill="#FCFCFC" opacity="1.000000" stroke="none" 
	d="
M333.224121,406.856079 
	C332.039398,408.782104 330.923309,410.309479 329.815765,411.825195 
	C332.878296,413.164276 333.616943,416.118164 333.575592,419.762299 
	C333.445557,431.218719 333.527710,442.677551 333.527710,454.567017 
	C355.573608,454.567017 377.141449,454.567017 398.993164,454.567017 
	C398.993164,461.241394 398.993164,467.481354 398.993164,474.005188 
	C383.558289,474.005188 368.242798,474.005188 352.927338,474.005188 
	C342.098755,474.005188 331.270203,474.016418 320.441620,474.001892 
	C310.630188,473.988770 307.876099,471.285309 307.872131,461.699951 
	C307.867004,449.372040 307.870880,437.044128 307.870880,424.716217 
	C307.870880,423.080750 307.870880,421.445282 307.870880,419.565765 
	C305.989807,419.565765 304.572327,419.565765 302.671814,419.565765 
	C302.671814,429.564636 302.671814,439.490692 302.671814,449.705811 
	C293.964233,449.705811 285.731903,449.705811 277.183594,449.705811 
	C277.183594,424.341980 277.183594,398.960999 277.183594,372.994812 
	C282.898132,372.994812 288.674530,372.994720 294.450958,372.994843 
	C303.780182,372.995026 313.109802,372.943390 322.438538,373.011993 
	C329.848999,373.066467 333.332550,376.251892 333.471924,383.486664 
	C333.619354,391.139587 333.369171,398.800171 333.224121,406.856079 
M307.988770,398.494202 
	C307.988770,396.543365 307.988770,394.592529 307.988770,392.435181 
	C305.930115,392.435181 304.371765,392.435181 302.697510,392.435181 
	C302.697510,396.401215 302.697510,400.109283 302.697510,403.905151 
	C304.490265,403.905151 305.948700,403.905151 307.745453,403.905151 
	C307.831360,402.322479 307.910004,400.873322 307.988770,398.494202 
z"/>
<path fill="#FCFCFC" opacity="1.000000" stroke="none" 
	d="
M745.267578,352.626343 
	C743.479614,353.203247 742.045044,353.912445 740.606934,353.919800 
	C724.965027,353.999847 709.322510,353.969849 693.386719,353.969849 
	C693.386719,347.663727 693.386719,341.584198 693.386719,334.948120 
	C703.336548,334.948120 713.388428,334.948120 723.790222,334.948120 
	C723.888184,333.058411 723.958679,331.698608 724.049805,329.940186 
	C717.563904,329.940186 711.422058,330.023438 705.283447,329.918640 
	C697.927612,329.793091 692.731934,327.302673 692.947266,317.517334 
	C693.415771,296.223114 693.091919,274.911407 693.091919,253.300934 
	C701.604126,253.300934 709.862305,253.300934 718.549072,253.300934 
	C718.549072,271.895630 718.549072,290.638947 718.549072,309.845367 
	C720.485535,309.947906 722.025574,310.029449 723.988647,310.133392 
	C723.988647,291.062500 723.988647,272.313843 723.988647,253.281586 
	C732.642456,253.281586 740.900696,253.281586 749.534241,253.281586 
	C749.626465,254.434311 749.815613,255.702072 749.816406,256.969940 
	C749.833191,285.632294 749.809875,314.294647 749.852722,342.956940 
	C749.858521,346.816956 749.304932,350.288177 745.267578,352.626343 
z"/>
<path fill="#FBFBFB" opacity="1.000000" stroke="none" 
	d="
M280.040527,210.006699 
	C263.671295,210.006546 262.468475,208.819946 262.468475,193.157654 
	C262.468475,177.015930 262.452576,160.874176 262.474976,144.732483 
	C262.486694,136.284088 265.755249,133.024155 274.238312,133.001007 
	C285.387665,132.970581 296.537201,132.968674 307.686554,133.001724 
	C316.006531,133.026398 319.254364,136.209976 319.274384,144.358383 
	C319.304565,156.640472 319.282257,168.922684 319.282257,181.729584 
	C308.781464,181.729584 298.717987,181.729584 288.492493,181.729584 
	C288.492493,184.849503 288.492493,187.438766 288.492493,190.153992 
	C292.260681,191.548630 293.967896,190.367416 293.577209,186.249786 
	C302.088959,186.249786 310.346130,186.249786 319.033051,186.249786 
	C319.033051,191.746475 319.399261,197.342041 318.919067,202.864014 
	C318.523010,207.418732 314.684692,209.910431 308.988800,209.972076 
	C299.504578,210.074722 290.018433,210.004257 280.040527,210.006699 
M288.153839,155.028427 
	C288.153839,157.632568 288.153839,160.236710 288.153839,162.919708 
	C290.225555,162.919708 291.687073,162.919708 293.374084,162.919708 
	C293.374084,159.506775 293.374084,156.270355 293.374084,151.889923 
	C291.212830,152.843124 289.691498,153.514099 288.153839,155.028427 
z"/>
<path fill="#FCFCFC" opacity="1.000000" stroke="none" 
	d="
M637.280762,393.029205 
	C637.280762,408.676971 637.305420,423.830231 637.270630,438.983307 
	C637.252869,446.717133 634.091248,449.946136 626.414185,449.987946 
	C614.758179,450.051392 603.101440,450.050964 591.445435,449.988251 
	C583.770935,449.946960 580.505798,446.688324 580.486389,439.037170 
	C580.439941,420.720276 580.441406,402.403076 580.485840,384.086151 
	C580.504211,376.507477 583.890808,373.060974 591.397827,373.014618 
	C603.053711,372.942627 614.710571,372.945953 626.366455,373.013123 
	C633.940613,373.056732 637.201904,376.426117 637.275146,384.042236 
	C637.302368,386.872803 637.280334,389.703796 637.280762,393.029205 
M611.636353,412.499329 
	C611.636353,405.939819 611.636353,399.380310 611.636353,392.475464 
	C609.330200,392.673492 607.786011,392.806091 606.508789,392.915771 
	C606.508789,405.842621 606.508789,418.212250 606.508789,430.829102 
	C608.315247,430.743988 609.750305,430.676361 611.636292,430.587494 
	C611.636292,424.719757 611.636292,419.108978 611.636353,412.499329 
z"/>
<path fill="#FBFBFB" opacity="1.000000" stroke="none" 
	d="
M433.080322,132.993576 
	C443.393555,132.993729 453.218964,132.947937 463.043701,133.008820 
	C470.708069,133.056320 474.092010,136.356400 474.113159,143.886887 
	C474.165039,162.371277 474.169281,180.856033 474.111694,199.340378 
	C474.088715,206.721878 470.842865,209.936905 463.395721,209.984177 
	C451.572754,210.059250 439.748505,210.068390 427.925720,209.982224 
	C420.612183,209.928925 417.338531,206.554626 417.321777,199.178162 
	C417.281372,181.359833 417.306793,163.541351 417.309326,145.722931 
	C417.310699,135.940964 420.251129,133.016678 430.094330,132.993881 
	C430.926971,132.991943 431.759583,132.993591 433.080322,132.993576 
M444.457306,152.719742 
	C444.001434,153.464111 443.151520,154.207016 443.148743,154.953079 
	C443.105255,166.566315 443.167633,178.179977 443.236603,189.793381 
	C443.238129,190.050583 443.603302,190.305649 443.970428,190.786407 
	C445.238586,190.682480 446.650085,190.566788 448.356903,190.426910 
	C448.356903,178.519897 448.422668,166.922104 448.228149,155.328674 
	C448.213074,154.430740 446.370056,153.563461 444.457306,152.719742 
z"/>
<path fill="#FBFBFB" opacity="1.000000" stroke="none" 
	d="
M521.124329,330.006409 
	C518.327515,329.871857 515.928345,330.073761 513.712219,329.529816 
	C509.611328,328.523315 506.951599,325.864838 506.936981,321.405945 
	C506.871979,301.587952 506.804260,281.769073 506.939148,261.951874 
	C506.974640,256.733276 510.473511,253.208221 515.883118,253.106918 
	C528.702393,252.866837 541.531433,252.875488 554.351562,253.088150 
	C560.151733,253.184372 563.612061,256.871002 563.645447,262.689911 
	C563.755371,281.841919 563.752136,300.995300 563.654541,320.147430 
	C563.622131,326.513977 560.127075,329.885681 553.580688,329.964874 
	C542.923340,330.093781 532.263428,330.003937 521.124329,330.006409 
M537.915649,281.545654 
	C537.915649,278.753204 537.915649,275.960724 537.915649,273.001465 
	C535.980713,273.001465 534.444214,273.001465 532.920166,273.001465 
	C532.920166,285.692017 532.920166,298.062164 532.920166,310.514648 
	C534.624451,310.514648 536.047302,310.514648 537.915649,310.514648 
	C537.915649,301.040039 537.915649,291.788330 537.915649,281.545654 
z"/>
<path fill="#FBFBFB" opacity="1.000000" stroke="none" 
	d="
M504.408173,449.954224 
	C491.806976,449.987671 479.645844,450.037445 467.485046,449.991638 
	C459.527069,449.961670 456.327271,446.710510 456.316406,438.731476 
	C456.291656,420.573181 456.290192,402.414764 456.317230,384.256470 
	C456.328857,376.455231 459.725739,373.043396 467.570312,373.007507 
	C479.064789,372.954926 490.559967,372.949493 502.054352,373.009735 
	C509.715179,373.049896 513.092468,376.361389 513.113525,383.904327 
	C513.164734,402.229095 513.152588,420.554169 513.119873,438.879028 
	C513.107117,446.003601 511.755676,447.731171 504.408173,449.954224 
M487.359863,401.581055 
	C487.359863,398.776398 487.359863,395.971741 487.359863,392.998474 
	C485.494476,392.998474 483.949677,392.998474 482.354919,392.998474 
	C482.354919,405.685913 482.354919,418.055969 482.354919,430.538422 
	C484.058990,430.538422 485.491730,430.538422 487.359833,430.538422 
	C487.359833,421.079132 487.359833,411.820862 487.359863,401.581055 
z"/>
<path fill="#FBFBFB" opacity="1.000000" stroke="none" 
	d="
M271.691406,397.002838 
	C271.691406,411.323364 271.719299,425.144531 271.680389,438.965515 
	C271.658783,446.635162 268.408844,449.944336 260.767334,449.988220 
	C249.111359,450.055115 237.454498,450.050385 225.798447,449.990326 
	C218.075150,449.950531 214.898376,446.766724 214.881760,439.064545 
	C214.842255,420.747498 214.843582,402.430267 214.881165,384.113220 
	C214.896866,376.462555 218.189072,373.063599 225.713837,373.014832 
	C237.369705,372.939392 249.026672,372.945251 260.682648,373.011780 
	C268.211975,373.054779 271.611847,376.517090 271.683228,384.014496 
	C271.722839,388.177124 271.691040,392.340424 271.691406,397.002838 
M245.915588,421.432007 
	C245.915588,412.006134 245.915588,402.580261 245.915588,393.008972 
	C243.974243,393.008972 242.438278,393.008972 240.931122,393.008972 
	C240.931122,405.705200 240.931122,418.073486 240.931122,430.504517 
	C242.644043,430.504517 244.064255,430.504517 245.915588,430.504517 
	C245.915588,427.648773 245.915588,425.027161 245.915588,421.432007 
z"/>
<path fill="#FCFCFC" opacity="1.000000" stroke="none" 
	d="
M628.907471,160.999786 
	C628.907471,167.803055 628.907471,174.106506 628.907471,180.852539 
	C618.576721,180.852539 608.506348,180.852539 598.175781,180.852539 
	C598.175781,184.199509 598.175781,187.110870 598.175781,190.494095 
	C599.568970,190.579193 600.975830,190.665131 602.639343,190.766754 
	C603.005127,189.287338 603.347534,187.902451 603.753906,186.258789 
	C611.938049,186.258789 620.171387,186.258789 628.866211,186.258789 
	C628.866211,191.621735 629.062378,196.908600 628.805786,202.173416 
	C628.590088,206.599655 625.047546,209.814880 619.903625,209.897476 
	C607.080872,210.103348 594.249268,210.134644 581.427979,209.887024 
	C575.547485,209.773453 572.356995,206.118515 572.335999,200.183533 
	C572.268372,181.027359 572.259277,161.870560 572.342407,142.714508 
	C572.367798,136.866608 575.688965,133.213501 581.573730,133.102676 
	C594.228943,132.864380 606.894226,132.871613 619.550049,133.088959 
	C625.754639,133.195511 628.837463,136.762634 628.895752,143.009415 
	C628.950134,148.839127 628.907471,154.669754 628.907471,160.999786 
M602.071655,163.016083 
	C602.638855,159.570053 603.206055,156.124023 603.857178,152.167877 
	C601.161499,152.341141 599.620605,152.440186 597.888794,152.551498 
	C597.888794,155.465698 598.068115,157.944595 597.841919,160.385971 
	C597.578247,163.232330 599.253174,163.190262 602.071655,163.016083 
z"/>
<path fill="#FBFBFB" opacity="1.000000" stroke="none" 
	d="
M454.050690,252.993240 
	C459.697998,252.993240 464.852905,252.993240 470.281769,252.993240 
	C470.502838,254.571671 470.703064,256.001373 470.961548,257.846985 
	C480.945068,257.846985 491.022461,257.846985 501.392365,257.846985 
	C501.392365,264.317719 501.392365,270.383575 501.392365,276.920105 
	C491.261505,276.920105 481.197479,276.920105 470.916931,276.920105 
	C470.916931,288.283112 470.916931,299.180542 470.916931,310.385620 
	C472.623657,310.385620 474.157288,310.385620 476.028564,310.385620 
	C476.028564,301.019775 476.028564,291.735931 476.028564,282.077911 
	C484.559967,282.077911 492.769623,282.077911 501.691925,282.077911 
	C501.691925,284.076172 501.691956,286.152649 501.691956,288.229156 
	C501.691864,298.716187 501.726379,309.203400 501.679016,319.690216 
	C501.649384,326.259949 498.512604,329.836151 492.100037,329.933502 
	C479.618500,330.123016 467.129944,330.120148 454.648407,329.929413 
	C448.191711,329.830719 445.115906,326.322845 445.101044,319.745056 
	C445.069183,305.636261 445.091278,291.527344 445.091278,277.063751 
	C442.954895,277.063751 441.195709,277.063751 439.155426,277.063751 
	C439.155426,270.651672 439.155426,264.593231 439.155426,258.193695 
	C440.934448,258.086731 442.704224,257.980347 444.828827,257.852631 
	C444.968262,256.435516 445.106384,255.031860 445.306946,252.993240 
	C448.017639,252.993240 450.787964,252.993240 454.050690,252.993240 
z"/>
<path fill="#FBFBFB" opacity="1.000000" stroke="none" 
	d="
M394.164276,165.723999 
	C391.548096,165.723984 389.408417,165.723984 386.833038,165.723984 
	C386.833038,161.270325 386.833038,157.166473 386.833038,152.619492 
	C384.855835,152.487930 383.283386,152.383286 381.410583,152.258667 
	C381.410583,165.170624 381.410583,177.748245 381.410583,190.507309 
	C383.078522,190.507309 384.523254,190.507309 386.517273,190.507309 
	C386.517273,184.471848 386.517273,178.566345 386.517273,172.385620 
	C395.303680,172.385620 403.547211,172.385620 412.202850,172.385620 
	C412.202850,182.335434 412.383484,192.302490 412.120605,202.257828 
	C412.003082,206.709396 408.312561,209.828232 403.166077,209.905869 
	C390.345886,210.099274 377.517944,210.131943 364.699036,209.900833 
	C358.784576,209.794189 355.532074,206.223312 355.503723,200.294495 
	C355.412140,181.143021 355.410980,161.990540 355.502502,142.839066 
	C355.531799,136.709732 358.918518,133.163025 365.103363,133.067764 
	C377.590668,132.875443 390.084900,132.882629 402.572540,133.064713 
	C409.048248,133.159149 412.206635,136.658005 412.268555,143.189377 
	C412.337799,150.490677 412.284485,157.793121 412.284485,165.723999 
	C406.155365,165.723999 400.398071,165.723999 394.164276,165.723999 
z"/>
<path fill="#FDFDFD" opacity="1.000000" stroke="none" 
	d="
M357.977478,372.997437 
	C361.616760,372.997437 364.761292,372.997437 368.065613,372.997437 
	C368.221649,374.756958 368.347656,376.178223 368.513031,378.043030 
	C378.832825,378.043030 388.911713,378.043030 399.126373,378.043030 
	C399.126373,384.473053 399.126373,390.431854 399.126373,396.845886 
	C389.035492,396.845886 378.944244,396.845886 368.567261,396.845886 
	C368.567261,408.205750 368.567261,419.115845 368.567261,430.433197 
	C370.142395,430.532471 371.703033,430.630859 373.682129,430.755585 
	C373.682129,421.158722 373.682129,411.892670 373.682129,402.314697 
	C382.305359,402.314697 390.537689,402.314697 399.219757,402.314697 
	C399.219757,415.626434 399.359802,428.891174 399.142120,442.150085 
	C399.068146,446.654388 395.415283,449.816376 390.271667,449.896576 
	C377.448029,450.096619 364.615967,450.129150 351.793732,449.887238 
	C345.884735,449.775787 342.786499,446.191864 342.750580,440.205719 
	C342.674591,427.545563 342.727020,414.884674 342.726807,402.224060 
	C342.726776,400.592316 342.726807,398.960571 342.726807,397.217987 
	C340.470367,397.059509 338.678864,396.933685 336.687683,396.793823 
	C336.687683,390.551758 336.687683,384.442902 336.687683,378.204254 
	C338.674500,378.065460 340.464508,377.940399 342.454376,377.801392 
	C342.625824,376.226959 342.782471,374.788116 342.977448,372.997437 
	C347.861298,372.997437 352.672058,372.997437 357.977478,372.997437 
z"/>
<path fill="#FEFEFE" opacity="1.000000" stroke="none" 
	d="
M384.000183,214.711182 
	C393.614594,214.711166 402.728973,214.711166 412.053406,214.711166 
	C412.053406,221.303345 412.053406,227.392990 412.053406,233.742355 
	C383.058807,233.742355 354.142487,233.742355 324.977814,233.742355 
	C324.977814,200.239517 324.977814,166.852081 324.977814,133.231750 
	C333.349579,133.231750 341.601196,133.231750 350.266357,133.231750 
	C350.266357,160.336395 350.266357,187.246902 350.266357,214.711182 
	C361.613373,214.711182 372.556793,214.711182 384.000183,214.711182 
z"/>
<path fill="#FCFCFC" opacity="1.000000" stroke="none" 
	d="
M166.019592,372.993835 
	C177.340790,372.993866 188.166107,372.969482 198.991272,373.001648 
	C207.704803,373.027496 210.816040,376.099701 210.827042,384.601196 
	C210.838242,393.261383 210.863342,401.921783 210.818634,410.581726 
	C210.783127,417.458649 207.906479,420.776245 200.987137,421.110229 
	C194.196854,421.437958 187.378387,421.181610 180.122406,421.181610 
	C180.122406,430.778046 180.122406,440.008179 180.122406,449.619751 
	C171.324966,449.619751 162.971649,449.619751 154.391693,449.619751 
	C154.391693,424.294098 154.391693,399.036438 154.391693,372.993835 
	C158.042587,372.993835 161.783127,372.993835 166.019592,372.993835 
M181.592285,392.282776 
	C180.750854,395.618164 179.909424,398.953552 178.948395,402.763031 
	C181.680756,402.763031 183.239960,402.763031 185.188873,402.763031 
	C185.188873,399.969177 185.421387,397.318085 185.065399,394.748474 
	C184.937195,393.822998 183.394394,393.093506 181.592285,392.282776 
z"/>
<path fill="#FBFBFB" opacity="1.000000" stroke="none" 
	d="
M543.910156,412.000061 
	C543.910156,426.469940 543.910156,440.439789 543.910156,454.760406 
	C554.484924,454.760406 564.610168,454.760406 574.930237,454.760406 
	C574.930237,461.223175 574.930237,467.332794 574.930237,473.725708 
	C556.245178,473.725708 537.643311,473.725708 518.673279,473.725708 
	C518.673279,440.435638 518.673279,407.052856 518.673279,373.330505 
	C526.814087,373.330505 535.048218,373.330505 543.910156,373.330505 
	C543.910156,385.977722 543.910156,398.738861 543.910156,412.000061 
z"/>
<path fill="#FEFEFE" opacity="1.000000" stroke="none" 
	d="
M449.818665,373.002350 
	C450.908417,373.758423 452.016266,374.497101 452.037628,375.265869 
	C452.189148,380.725189 452.118286,386.190643 452.118286,392.090027 
	C444.896698,392.090027 437.987579,392.090027 430.666138,392.090027 
	C430.520599,393.841339 430.408569,395.189240 430.260223,396.974426 
	C437.577515,396.974426 444.504822,396.974426 451.661621,396.974426 
	C451.661621,403.435486 451.661621,409.492767 451.661621,415.979675 
	C444.586945,415.979675 437.673920,415.979675 430.466705,415.979675 
	C430.466705,427.337036 430.466705,438.274841 430.466705,449.606323 
	C421.826508,449.606323 413.481689,449.606323 404.728363,449.606323 
	C404.728363,437.128937 404.728333,424.692688 404.728363,412.256409 
	C404.728363,402.768555 404.693512,393.280487 404.739777,383.792877 
	C404.775299,376.510468 408.077789,373.096252 415.377411,373.030792 
	C426.695374,372.929260 438.014923,373.000732 449.818665,373.002350 
z"/>
<path fill="#F9F9F9" opacity="1.000000" stroke="none" 
	d="
M575.138489,420.000061 
	C575.138489,430.139740 575.138489,439.779388 575.138489,449.714233 
	C566.627930,449.714233 558.364319,449.714233 549.778503,449.714233 
	C549.778503,424.386993 549.778503,398.987823 549.778503,373.288055 
	C558.030090,373.288055 566.264771,373.288055 575.138489,373.288055 
	C575.138489,388.672638 575.138489,404.086334 575.138489,420.000061 
z"/>
<path fill="#F8F8F8" opacity="1.000000" stroke="none" 
	d="
M573.318115,310.689758 
	C580.571777,310.689758 587.359131,310.689758 594.510681,310.689758 
	C594.510681,319.516388 594.726074,327.819214 594.434143,336.104126 
	C594.242493,341.541931 590.267212,344.587341 583.617493,344.863495 
	C578.974487,345.056335 574.317017,344.900665 569.263123,344.900665 
	C569.263123,341.652161 569.263123,338.609009 569.263123,335.195496 
	C572.876526,335.195496 576.648438,335.195496 580.787964,335.195496 
	C580.787964,333.353699 580.787964,331.863007 580.787964,330.013000 
	C576.948425,330.013000 573.173340,330.013000 568.860840,330.013000 
	C568.860840,324.243347 568.984192,318.804199 568.815735,313.374084 
	C568.710266,309.976074 571.006165,310.817505 573.318115,310.689758 
z"/>
<path fill="#2E2E30" opacity="1.000000" stroke="none" 
	d="
M307.988708,398.959167 
	C307.910004,400.873322 307.831360,402.322479 307.745453,403.905151 
	C305.948700,403.905151 304.490265,403.905151 302.697510,403.905151 
	C302.697510,400.109283 302.697510,396.401215 302.697510,392.435181 
	C304.371765,392.435181 305.930115,392.435181 307.988770,392.435181 
	C307.988770,394.592529 307.988770,396.543365 307.988708,398.959167 
z"/>
<path fill="#2E2E30" opacity="1.000000" stroke="none" 
	d="
M288.162018,154.606750 
	C289.691498,153.514099 291.212830,152.843124 293.374084,151.889923 
	C293.374084,156.270355 293.374084,159.506775 293.374084,162.919708 
	C291.687073,162.919708 290.225555,162.919708 288.153839,162.919708 
	C288.153839,160.236710 288.153839,157.632568 288.162018,154.606750 
z"/>
<path fill="#2E2E30" opacity="1.000000" stroke="none" 
	d="
M611.636353,412.998779 
	C611.636292,419.108978 611.636292,424.719757 611.636292,430.587494 
	C609.750305,430.676361 608.315247,430.743988 606.508789,430.829102 
	C606.508789,418.212250 606.508789,405.842621 606.508789,392.915771 
	C607.786011,392.806091 609.330200,392.673492 611.636353,392.475464 
	C611.636353,399.380310 611.636353,405.939819 611.636353,412.998779 
z"/>
<path fill="#18181A" opacity="1.000000" stroke="none" 
	d="
M444.916962,152.700836 
	C446.370056,153.563461 448.213074,154.430740 448.228149,155.328674 
	C448.422668,166.922104 448.356903,178.519897 448.356903,190.426910 
	C446.650085,190.566788 445.238586,190.682480 443.970428,190.786407 
	C443.603302,190.305649 443.238129,190.050583 443.236603,189.793381 
	C443.167633,178.179977 443.105255,166.566315 443.148743,154.953079 
	C443.151520,154.207016 444.001434,153.464111 444.916962,152.700836 
z"/>
<path fill="#18181A" opacity="1.000000" stroke="none" 
	d="
M537.915649,282.041138 
	C537.915649,291.788330 537.915649,301.040039 537.915649,310.514648 
	C536.047302,310.514648 534.624451,310.514648 532.920166,310.514648 
	C532.920166,298.062164 532.920166,285.692017 532.920166,273.001465 
	C534.444214,273.001465 535.980713,273.001465 537.915649,273.001465 
	C537.915649,275.960724 537.915649,278.753204 537.915649,282.041138 
z"/>
<path fill="#18181A" opacity="1.000000" stroke="none" 
	d="
M487.359863,402.071808 
	C487.359833,411.820862 487.359833,421.079132 487.359833,430.538422 
	C485.491730,430.538422 484.058990,430.538422 482.354919,430.538422 
	C482.354919,418.055969 482.354919,405.685913 482.354919,392.998474 
	C483.949677,392.998474 485.494476,392.998474 487.359863,392.998474 
	C487.359863,395.971741 487.359863,398.776398 487.359863,402.071808 
z"/>
<path fill="#18181A" opacity="1.000000" stroke="none" 
	d="
M245.915588,421.918762 
	C245.915588,425.027161 245.915588,427.648773 245.915588,430.504517 
	C244.064255,430.504517 242.644043,430.504517 240.931122,430.504517 
	C240.931122,418.073486 240.931122,405.705200 240.931122,393.008972 
	C242.438278,393.008972 243.974243,393.008972 245.915588,393.008972 
	C245.915588,402.580261 245.915588,412.006134 245.915588,421.918762 
z"/>
<path fill="#111113" opacity="1.000000" stroke="none" 
	d="
M601.627563,163.025970 
	C599.253174,163.190262 597.578247,163.232330 597.841919,160.385971 
	C598.068115,157.944595 597.888794,155.465698 597.888794,152.551498 
	C599.620605,152.440186 601.161499,152.341141 603.857178,152.167877 
	C603.206055,156.124023 602.638855,159.570053 601.627563,163.025970 
z"/>
<path fill="#111113" opacity="1.000000" stroke="none" 
	d="
M182.044724,392.278687 
	C183.394394,393.093506 184.937195,393.822998 185.065399,394.748474 
	C185.421387,397.318085 185.188873,399.969177 185.188873,402.763031 
	C183.239960,402.763031 181.680756,402.763031 178.948395,402.763031 
	C179.909424,398.953552 180.750854,395.618164 182.044724,392.278687 
z"/>
</svg>